<?xml version="1.0" encoding="UTF-8"?>
<svg width="653px" height="1030px" viewBox="0 0 653 1030" version="1.1" xmlns="http://www.w3.org/2000/svg" xmlns:xlink="http://www.w3.org/1999/xlink">
    <!-- Generator: Sketch 49.3 (51167) - http://www.bohemiancoding.com/sketch -->
    <title>Sign (font as path)</title>
    <desc>Created with Sketch.</desc>
    <defs>
        <rect id="path-1" x="15" y="21" width="615" height="988" rx="16"></rect>
        <filter x="-2.0%" y="-1.2%" width="103.9%" height="102.4%" filterUnits="objectBoundingBox" id="filter-2">
            <feOffset dx="0" dy="0" in="SourceAlpha" result="shadowOffsetOuter1"></feOffset>
            <feGaussianBlur stdDeviation="4" in="shadowOffsetOuter1" result="shadowBlurOuter1"></feGaussianBlur>
            <feColorMatrix values="0 0 0 0 0   0 0 0 0 0   0 0 0 0 0  0 0 0 0.5 0" type="matrix" in="shadowBlurOuter1"></feColorMatrix>
        </filter>
    </defs>
    <g id="Sign-(font-as-path)" stroke="none" stroke-width="1" fill="none" fill-rule="evenodd">
        <g id="Rectangle">
            <use fill="black" fill-opacity="1" filter="url(#filter-2)" xlink:href="#path-1"></use>
            <use fill="#F5F5F5" fill-rule="evenodd" xlink:href="#path-1"></use>
        </g>
        <path d="M278,123.16 L278,199 L261.52,199 L261.52,71.32 L278,71.32 L301.36,143.48 L301.36,71.32 L317.84,71.32 L317.84,199 L301.36,199 L278,123.16 Z M360.4,184.12 C364.880022,184.226667 367.919992,182.57335 369.52,179.16 C372.720016,172.119965 374.586664,159.320093 375.12,140.76 L375.12,133.4 C375.12,129.773315 375.066667,127.053342 374.96,125.24 C373.999995,108.49325 372.240013,97.2933616 369.68,91.64 C367.866658,87.906648 364.773355,86.04 360.4,86.04 C356.026645,86.04 352.933342,87.8533152 351.12,91.48 C348.559987,97.6666976 346.800005,108.919918 345.84,125.24 C345.733333,127.16001 345.68,129.986648 345.68,133.72 C345.68,136.600014 345.733333,138.946658 345.84,140.76 C346.160002,159.106758 348.079982,171.90663 351.6,179.16 C353.306675,182.466683 356.239979,184.12 360.4,184.12 Z M360.4,70.2 C373.093397,70.2 381.519979,74.8932864 385.68,84.28 C389.946688,94.413384 392.08,112.119874 392.08,137.4 C392.08,141.453354 391.973334,144.919986 391.76,147.8 C390.693328,160.493397 390.16,166.893333 390.16,167 C389.093328,175.213374 387.546677,181.506645 385.52,185.88 C380.613309,195.266714 372.240059,199.96 360.4,199.96 C348.346606,199.96 340.080022,195.213381 335.6,185.72 C332.93332,180.38664 330.960006,168.440093 329.68,149.88 C329.253331,143.479968 329.04,137.773358 329.04,132.76 C329.04,110.573222 331.119979,94.413384 335.28,84.28 C337.20001,80.013312 340.373311,76.6000128 344.8,74.04 C349.226689,71.4799872 354.426637,70.2 360.4,70.2 Z" id="NO" fill="#B01C2E"></path>
        <rect id="Rectangle-2" fill="#B01C2E" x="204" y="360" width="244" height="127"></rect>
        <path d="M274.76,463.84 C278.120017,463.92 280.399994,462.680013 281.6,460.12 C284.000012,454.839974 285.399998,445.24007 285.8,431.32 L285.8,425.8 C285.8,423.079986 285.76,421.040007 285.68,419.68 C284.959996,407.119937 283.64001,398.720021 281.72,394.48 C280.359993,391.679986 278.040016,390.28 274.76,390.28 C271.479984,390.28 269.160007,391.639986 267.8,394.36 C265.87999,399.000023 264.560004,407.439939 263.84,419.68 C263.76,421.120007 263.72,423.239986 263.72,426.04 C263.72,428.200011 263.76,429.959993 263.84,431.32 C264.080001,445.080069 265.519987,454.679973 268.16,460.12 C269.440006,462.600012 271.639984,463.84 274.76,463.84 Z M274.76,378.4 C284.280048,378.4 290.599984,381.919965 293.72,388.96 C296.920016,396.560038 298.52,409.839905 298.52,428.8 C298.52,431.840015 298.440001,434.439989 298.28,436.6 C297.479996,446.120048 297.08,450.92 297.08,451 C296.279996,457.160031 295.120008,461.879984 293.6,465.16 C289.919982,472.200035 283.640044,475.72 274.76,475.72 C265.719955,475.72 259.520017,472.160036 256.16,465.04 C254.15999,461.03998 252.680005,452.08007 251.72,438.16 C251.399998,433.359976 251.24,429.080019 251.24,425.32 C251.24,408.679917 252.799984,396.560038 255.92,388.96 C257.360007,385.759984 259.739983,383.20001 263.06,381.28 C266.380017,379.35999 270.279978,378.4 274.76,378.4 Z M319.28,390.16 L319.28,463.84 L323.72,463.84 C326.440014,463.84 328.339995,463.640002 329.42,463.24 C330.500005,462.839998 331.599994,461.760009 332.72,460 C333.920006,457.279986 334.839997,453.680022 335.48,449.2 C335.56,448.799998 335.959996,444.320043 336.68,435.76 C336.920001,433.919991 337.04,430.880021 337.04,426.64 C337.04,423.199983 336.960001,420.48001 336.8,418.48 C336.159997,408.47995 334.920009,400.720028 333.08,395.2 C331.959994,391.839983 328.840026,390.16 323.72,390.16 L319.28,390.16 Z M306.92,475 L306.92,379 L325.52,379 C335.360049,379 341.839984,382.359966 344.96,389.08 C346.080006,392.040015 347.079996,396.319972 347.96,401.92 C348.840004,407.520028 349.32,412.639977 349.4,417.28 C349.560001,420.720017 349.64,423.719987 349.64,426.28 C349.64,428.28001 349.560001,431.559977 349.4,436.12 C348.679996,450.280071 347.120012,459.959974 344.72,465.16 C341.439984,471.720033 334.880049,475 325.04,475 L306.92,475 Z M370.4,390.16 L370.4,463.84 L374.84,463.84 C377.560014,463.84 379.459995,463.640002 380.54,463.24 C381.620005,462.839998 382.719994,461.760009 383.84,460 C385.040006,457.279986 385.959997,453.680022 386.6,449.2 C386.68,448.799998 387.079996,444.320043 387.8,435.76 C388.040001,433.919991 388.16,430.880021 388.16,426.64 C388.16,423.199983 388.080001,420.48001 387.92,418.48 C387.279997,408.47995 386.040009,400.720028 384.2,395.2 C383.079994,391.839983 379.960026,390.16 374.84,390.16 L370.4,390.16 Z M358.04,475 L358.04,379 L376.64,379 C386.480049,379 392.959984,382.359966 396.08,389.08 C397.200006,392.040015 398.199996,396.319972 399.08,401.92 C399.960004,407.520028 400.44,412.639977 400.52,417.28 C400.680001,420.720017 400.76,423.719987 400.76,426.28 C400.76,428.28001 400.680001,431.559977 400.52,436.12 C399.799996,450.280071 398.240012,459.959974 395.84,465.16 C392.559984,471.720033 386.000049,475 376.16,475 L358.04,475 Z" id="ODD" fill="#FFFFFF"></path>
        <path d="M109.52,345 L109.52,217 L138.64,217 C144.613363,217 149.999976,218.439986 154.8,221.32 C163.120042,227.293363 167.28,237.533261 167.28,252.04 C167.28,259.080035 165.840014,265.63997 162.96,271.72 C160.399987,276.946693 157.680014,280.306659 154.8,281.8 C150.21331,284.146678 145.25336,285.32 139.92,285.32 L126,285.32 L126,345 L109.52,345 Z M126,270.44 L137.36,270.44 C145.466707,270.44 149.52,264.040064 149.52,251.24 C149.52,238.333269 145.466707,231.88 137.36,231.88 L126,231.88 L126,270.44 Z M203.6,262.76 L198.48,292.36 L209.2,292.36 L203.6,262.76 Z M210.64,217 L237.2,345 L220.4,345 L212.72,309.96 L194.48,309.96 L186.32,345 L169.36,345 L196.56,217 L210.64,217 Z M262.48,270.44 L272.88,270.44 C280.986707,270.44 285.04,264.040064 285.04,251.24 C285.04,238.333269 280.986707,231.88 272.88,231.88 L262.48,231.88 L262.48,270.44 Z M288.24,281.8 L303.28,345.32 L286.64,345.32 L272.4,285.32 L262.48,285.32 L262.64,345 L246,345 L246,217 L274.16,217 C280.133363,217 285.519976,218.439986 290.32,221.32 C298.640042,227.293363 302.8,237.533261 302.8,252.04 C302.8,258.973368 301.360014,265.213306 298.48,270.76 C296.239989,275.240022 293.520016,278.43999 290.32,280.36 C289.786664,280.786669 289.093338,281.266664 288.24,281.8 Z M338.8,287.56 L330.64,306.44 L330.64,345 L314.48,345 L314.48,216.84 L330.96,216.84 L330.96,267.88 L353.52,216.84 L371.44,216.84 L349.68,266.12 L372.4,345 L354.96,345 L338.8,287.56 Z M383.6,217 L400.72,217 L400.72,345 L383.6,345 L383.6,217 Z M431.6,269.16 L431.6,345 L415.12,345 L415.12,217.32 L431.6,217.32 L454.96,289.48 L454.96,217.32 L471.44,217.32 L471.44,345 L454.96,345 L431.6,269.16 Z M527.12,299.88 L516.4,299.88 L516.4,285 L543.28,285 L543.28,317.32 C543.28,322.760027 542.373342,327.559979 540.56,331.72 C536.293312,341.213381 527.920062,345.96 515.44,345.96 C502.426602,345.96 493.786688,341.213381 489.52,331.72 C487.173322,326.38664 485.04001,313.533435 483.12,293.16 C482.799998,290.279986 482.64,286.280026 482.64,281.16 C482.64,277.213314 482.746666,273.160021 482.96,269 C484.133339,249.479902 486.106653,236.573365 488.88,230.28 C493.680024,220.786619 502.533269,216.04 515.44,216.04 C527.493394,216.04 535.546646,220.786619 539.6,230.28 C541.733344,235.400026 542.959998,240.573307 543.28,245.8 L525.84,245.8 C525.733333,243.666656 525.040006,240.89335 523.76,237.48 C521.946658,233.746648 519.013354,231.88 514.96,231.88 C509.62664,231.88 506.213341,233.746648 504.72,237.48 C502.693323,242.81336 500.986674,254.599909 499.6,272.84 C499.386666,277.320022 499.28,279.719998 499.28,280.04 C499.28,282.920014 499.333333,285.213325 499.44,286.92 C500.933341,305.693427 502.959987,318.173302 505.52,324.36 C507.653344,327.986685 510.853312,329.8 515.12,329.8 C520.026691,329.8 523.386658,327.933352 525.2,324.2 C526.373339,321.426653 526.96,318.013354 526.96,313.96 L527.12,299.88 Z" id="PARKING" fill="#B01C2E"></path>
        <path d="M161.32,531.4 C161.079999,530.519996 160.640003,529.12001 160,527.2 C158.559993,523.759983 156.240016,522.04 153.04,522.04 C148.95998,522.04 146.320006,523.719983 145.12,527.08 C143.599992,531.240021 142.400004,539.799935 141.52,552.76 L141.28,557.8 C141.28,560.200012 141.32,562.039994 141.4,563.32 C142.440005,577.640072 143.95999,587.039978 145.96,591.52 C147.320007,594.240014 149.719983,595.6 153.16,595.6 C157.000019,595.6 159.479994,594.320013 160.6,591.76 C161.480004,589.599989 162.079998,587.160014 162.4,584.44 L175.48,584.44 C174.839997,589.720026 173.760008,593.999984 172.24,597.28 C168.959984,604.240035 162.640047,607.72 153.28,607.72 C144.079954,607.72 137.640018,604.200035 133.96,597.16 C132.279992,593.639982 130.680008,584.120078 129.16,568.6 C128.919999,564.359979 128.8,561.000012 128.8,558.52 C128.88,554.919982 128.96,552.08001 129.04,550 C129.680003,535.119926 131.239988,525.240024 133.72,520.36 C137.320018,513.639966 143.799953,510.28 153.16,510.28 C162.280046,510.28 168.479984,513.839964 171.76,520.96 C173.120007,524.480018 174.079997,527.959983 174.64,531.4 L161.32,531.4 Z M204.16,545.32 L200.32,567.52 L208.36,567.52 L204.16,545.32 Z M209.44,511 L229.36,607 L216.76,607 L211,580.72 L197.32,580.72 L191.2,607 L178.48,607 L198.88,511 L209.44,511 Z M235.96,511 L248.32,511 L248.32,595.96 L275.92,595.96 L275.92,607 L235.96,607 L235.96,511 Z M282.52,511 L319.36,511 L319.36,522.16 L294.88,522.16 L294.88,549.88 L309.04,549.88 L309.04,561.04 L294.88,561.04 L294.88,595.84 L320.56,595.84 L320.56,607 L282.52,607 L282.52,511 Z M340.12,550.12 L340.12,607 L327.76,607 L327.76,511.24 L340.12,511.24 L357.64,565.36 L357.64,511.24 L370,511.24 L370,607 L357.64,607 L340.12,550.12 Z M391.96,522.16 L391.96,595.84 L396.4,595.84 C399.120014,595.84 401.019995,595.640002 402.1,595.24 C403.180005,594.839998 404.279994,593.760009 405.4,592 C406.600006,589.279986 407.519997,585.680022 408.16,581.2 C408.24,580.799998 408.639996,576.320043 409.36,567.76 C409.600001,565.919991 409.72,562.880021 409.72,558.64 C409.72,555.199983 409.640001,552.48001 409.48,550.48 C408.839997,540.47995 407.600009,532.720028 405.76,527.2 C404.639994,523.839983 401.520026,522.16 396.4,522.16 L391.96,522.16 Z M379.6,607 L379.6,511 L398.2,511 C408.040049,511 414.519984,514.359966 417.64,521.08 C418.760006,524.040015 419.759996,528.319972 420.64,533.92 C421.520004,539.520028 422,544.639977 422.08,549.28 C422.240001,552.720017 422.32,555.719987 422.32,558.28 C422.32,560.28001 422.240001,563.559977 422.08,568.12 C421.359996,582.280071 419.800012,591.959974 417.4,597.16 C414.119984,603.720033 407.560049,607 397.72,607 L379.6,607 Z M448.84,545.32 L445,567.52 L453.04,567.52 L448.84,545.32 Z M454.12,511 L474.04,607 L461.44,607 L455.68,580.72 L442,580.72 L435.88,607 L423.16,607 L443.56,511 L454.12,511 Z M493,551.08 L500.8,551.08 C506.88003,551.08 509.92,546.280048 509.92,536.68 C509.92,526.999952 506.88003,522.16 500.8,522.16 L493,522.16 L493,551.08 Z M512.32,559.6 L523.6,607.24 L511.12,607.24 L500.44,562.24 L493,562.24 L493.12,607 L480.64,607 L480.64,511 L501.76,511 C506.240022,511 510.279982,512.079989 513.88,514.24 C520.120031,518.720022 523.24,526.399946 523.24,537.28 C523.24,542.480026 522.160011,547.159979 520,551.32 C518.319992,554.680017 516.280012,557.079993 513.88,558.52 C513.479998,558.840002 512.960003,559.199998 512.32,559.6 Z" id="CALENDAR" fill="#B01C2E"></path>
        <path d="M225.08,648.16 L225.08,721.84 L229.52,721.84 C232.240014,721.84 234.139995,721.640002 235.22,721.24 C236.300005,720.839998 237.399994,719.760009 238.52,718 C239.720006,715.279986 240.639997,711.680022 241.28,707.2 C241.36,706.799998 241.759996,702.320043 242.48,693.76 C242.720001,691.919991 242.84,688.880021 242.84,684.64 C242.84,681.199983 242.760001,678.48001 242.6,676.48 C241.959997,666.47995 240.720009,658.720028 238.88,653.2 C237.759994,649.839983 234.640026,648.16 229.52,648.16 L225.08,648.16 Z M212.72,733 L212.72,637 L231.32,637 C241.160049,637 247.639984,640.359966 250.76,647.08 C251.880006,650.040015 252.879996,654.319972 253.76,659.92 C254.640004,665.520028 255.12,670.639977 255.2,675.28 C255.360001,678.720017 255.44,681.719987 255.44,684.28 C255.44,686.28001 255.360001,689.559977 255.2,694.12 C254.479996,708.280071 252.920012,717.959974 250.52,723.16 C247.239984,729.720033 240.680049,733 230.84,733 L212.72,733 Z M281.96,671.32 L278.12,693.52 L286.16,693.52 L281.96,671.32 Z M287.24,637 L307.16,733 L294.56,733 L288.8,706.72 L275.12,706.72 L269,733 L256.28,733 L276.68,637 L287.24,637 Z M333.92,733 L321.08,733 L321.08,648.16 L306.56,648.16 L306.56,637 L347.12,637 L347.12,648.16 L333.92,648.16 L333.92,733 Z M354.32,637 L391.16,637 L391.16,648.16 L366.68,648.16 L366.68,675.88 L380.84,675.88 L380.84,687.04 L366.68,687.04 L366.68,721.84 L392.36,721.84 L392.36,733 L354.32,733 L354.32,637 Z M411.32,656.68 C411.32,660.68002 412.759986,664.759979 415.64,668.92 C417.160008,671.240012 419.799981,674.319981 423.56,678.16 C430.520035,685.360036 435.239988,691.719972 437.72,697.24 C439.560009,701.480021 440.48,706.519971 440.48,712.36 C440.48,718.120029 438.680018,722.99998 435.08,727 C430.99998,731.480022 425.320036,733.72 418.04,733.72 C412.03997,733.72 407.280018,731.480022 403.76,727 C400.319983,722.759979 398.520001,717.240034 398.36,710.44 L411.2,710.44 C411.2,713.640016 411.959992,716.27999 413.48,718.36 C415.000008,720.44001 416.919988,721.48 419.24,721.48 C424.680027,721.48 427.4,718.120034 427.4,711.4 C427.4,706.839977 426.36001,702.640019 424.28,698.8 C422.599992,695.839985 419.840019,692.36002 416,688.36 C404.719944,677.079944 399.08,666.44005 399.08,656.44 C399.08,650.599971 400.599985,645.920018 403.64,642.4 C407.240018,638.31998 412.679964,636.28 419.96,636.28 C426.440032,636.28 431.479982,638.519978 435.08,643 C438.120015,646.680018 439.839998,651.47997 440.24,657.4 L428.12,657.4 C427.559997,651.31997 424.720026,648.28 419.6,648.28 C414.079972,648.28 411.32,651.079972 411.32,656.68 Z" id="DATES" fill="#B01C2E"></path>
        <path d="M120.16,858.08 C111.039954,858.08 104.680018,855.240028 101.08,849.56 C98.3599864,845.159978 97,838.080049 97,828.32 C97,814.159929 100.239968,805.600015 106.72,802.64 C103.999986,801.279993 102.200004,798.440022 101.32,794.12 C100.839998,791.799988 100.6,788.200024 100.6,783.32 C100.6,775.799962 101.959986,770.200018 104.68,766.52 C107.800016,762.279979 112.999964,760.16 120.28,760.16 C133.480066,760.16 140.08,767.839923 140.08,783.2 C140.08,788.080024 139.840002,791.719988 139.36,794.12 C138.399995,798.440022 136.480014,801.319993 133.6,802.76 C140.240033,806.120017 143.56,814.919929 143.56,829.16 C143.56,838.760048 142.120014,845.719978 139.24,850.04 C135.639982,855.400027 129.280046,858.08 120.16,858.08 Z M120.28,772.16 C114.839973,772.16 112.12,776.439957 112.12,785 C112.12,794.120046 114.839973,798.68 120.28,798.68 C125.480026,798.68 128.08,793.920048 128.08,784.4 C128.08,776.239959 125.480026,772.16 120.28,772.16 Z M120.28,811.4 C113.159964,811.4 109.6,817.319941 109.6,829.16 C109.6,840.280056 113.159964,845.84 120.28,845.84 C127.400036,845.84 130.96,840.280056 130.96,829.16 C130.96,817.319941 127.400036,811.4 120.28,811.4 Z M203.32,795.32 L199.48,817.52 L207.52,817.52 L203.32,795.32 Z M208.6,761 L228.52,857 L215.92,857 L210.16,830.72 L196.48,830.72 L190.36,857 L177.64,857 L198.04,761 L208.6,761 Z M270.04,799.28 L258.88,834.56 L247.6,799.28 L247.6,857.24 L235.12,857 L235.12,761 L247.96,761 L258.76,793.16 L269.44,761 L282.4,761 L282.4,857 L270.04,857 L270.04,799.28 Z M319,802.4 L338.2,802.4 L338.2,813.32 L319,813.32 L319,802.4 Z M390.88,857.96 C385.839975,857.96 381.28002,856.600014 377.2,853.88 L382.72,843.32 C385.840016,845.000008 388.679987,845.84 391.24,845.84 C396.600027,845.84 400.519988,842.560033 403,836 C404.680008,831.359977 405.48,825.800032 405.4,819.32 C405.4,809.719952 402.160032,804.92 395.68,804.92 C392.399984,804.92 389.880009,806.159988 388.12,808.64 L376.96,806.6 L378.64,761 L412.72,761 L412.72,772.16 L391.12,772.16 L389.8,796.04 C392.040011,794.439992 394.799984,793.64 398.08,793.64 C404.240031,793.64 409.119982,795.919977 412.72,800.48 C416.320018,805.040023 418.12,810.999963 418.12,818.36 C418.12,829.240054 416.360018,838.039966 412.84,844.76 C408.199977,853.560044 400.88005,857.96 390.88,857.96 Z M456.04,857 L456.04,761 L477.88,761 C482.360022,761 486.399982,762.079989 490,764.24 C496.240031,768.720022 499.36,776.399946 499.36,787.28 C499.36,792.560026 498.280011,797.479977 496.12,802.04 C494.19999,805.96002 492.160011,808.479994 490,809.6 C486.559983,811.360009 482.84002,812.24 478.84,812.24 L468.4,812.24 L468.4,857 L456.04,857 Z M468.4,801.08 L476.92,801.08 C483.00003,801.08 486.04,796.280048 486.04,786.68 C486.04,776.999952 483.00003,772.16 476.92,772.16 L468.4,772.16 L468.4,801.08 Z M542.68,799.28 L531.52,834.56 L520.24,799.28 L520.24,857.24 L507.76,857 L507.76,761 L520.6,761 L531.4,793.16 L542.08,761 L555.04,761 L555.04,857 L542.68,857 L542.68,799.28 Z" id="8-AM---5-PM" fill="#B01C2E"></path>
        <path d="M81.79,879 L109.42,879 L109.42,887.37 L91.06,887.37 L91.06,908.16 L101.68,908.16 L101.68,916.53 L91.06,916.53 L91.06,942.63 L110.32,942.63 L110.32,951 L81.79,951 L81.79,879 Z M147.67,879 L135.34,914.28 L147.85,951 L138.13,951 L130.57,927.42 L122.74,951 L113.02,951 L125.71,914.1 L113.56,879 L123.37,879 L130.48,901.14 L137.95,879 L147.67,879 Z M172.87,894.3 C172.689999,893.639997 172.360002,892.590007 171.88,891.15 C170.799995,888.569987 169.060012,887.28 166.66,887.28 C163.599985,887.28 161.620004,888.539987 160.72,891.06 C159.579994,894.180016 158.680003,900.599951 158.02,910.32 L157.84,914.1 C157.84,915.900009 157.87,917.279995 157.93,918.24 C158.710004,928.980054 159.849992,936.029983 161.35,939.39 C162.370005,941.43001 164.169987,942.45 166.75,942.45 C169.630014,942.45 171.489996,941.49001 172.33,939.57 C172.990003,937.949992 173.439999,936.12001 173.68,934.08 L183.49,934.08 C183.009998,938.04002 182.200006,941.249988 181.06,943.71 C178.599988,948.930026 173.860035,951.54 166.84,951.54 C159.939966,951.54 155.110014,948.900026 152.35,943.62 C151.089994,940.979987 149.890006,933.840058 148.75,922.2 C148.569999,919.019984 148.48,916.500009 148.48,914.64 C148.54,911.939987 148.6,909.810008 148.66,908.25 C149.140002,897.089944 150.309991,889.680018 152.17,886.02 C154.870013,880.979975 159.729965,878.46 166.75,878.46 C173.590034,878.46 178.239988,881.129973 180.7,886.47 C181.720005,889.110013 182.439998,891.719987 182.86,894.3 L172.87,894.3 Z M187.99,879 L215.62,879 L215.62,887.37 L197.26,887.37 L197.26,908.16 L207.88,908.16 L207.88,916.53 L197.26,916.53 L197.26,942.63 L216.52,942.63 L216.52,951 L187.99,951 L187.99,879 Z M221.92,951 L221.92,879 L238.3,879 C241.660017,879 244.689987,879.809992 247.39,881.43 C252.070023,884.790017 254.41,890.549959 254.41,898.71 C254.41,902.67002 253.600008,906.359983 251.98,909.78 C250.539993,912.720015 249.010008,914.609996 247.39,915.45 C244.809987,916.770007 242.020015,917.43 239.02,917.43 L231.19,917.43 L231.19,951 L221.92,951 Z M231.19,909.06 L237.58,909.06 C242.140023,909.06 244.42,905.460036 244.42,898.26 C244.42,890.999964 242.140023,887.37 237.58,887.37 L231.19,887.37 L231.19,909.06 Z M279.43,951 L269.8,951 L269.8,887.37 L258.91,887.37 L258.91,879 L289.33,879 L289.33,887.37 L279.43,887.37 L279.43,951 Z M324.61,893.76 C324.61,896.760015 325.689989,899.819984 327.85,902.94 C328.990006,904.680009 330.969986,906.989986 333.79,909.87 C339.010026,915.270027 342.549991,920.039979 344.41,924.18 C345.790007,927.360016 346.48,931.139978 346.48,935.52 C346.48,939.840022 345.130014,943.499985 342.43,946.5 C339.369985,949.860017 335.110027,951.54 329.65,951.54 C325.149977,951.54 321.580013,949.860017 318.94,946.5 C316.359987,943.319984 315.010001,939.180026 314.89,934.08 L324.52,934.08 C324.52,936.480012 325.089994,938.459992 326.23,940.02 C327.370006,941.580008 328.809991,942.36 330.55,942.36 C334.63002,942.36 336.67,939.840025 336.67,934.8 C336.67,931.379983 335.890008,928.230014 334.33,925.35 C333.069994,923.129989 331.000014,920.520015 328.12,917.52 C319.659958,909.059958 315.43,901.080038 315.43,893.58 C315.43,889.199978 316.569989,885.690013 318.85,883.05 C321.550013,879.989985 325.629973,878.46 331.09,878.46 C335.950024,878.46 339.729987,880.139983 342.43,883.5 C344.710011,886.260014 345.999999,889.859978 346.3,894.3 L337.21,894.3 C336.789998,889.739977 334.660019,887.46 330.82,887.46 C326.679979,887.46 324.61,889.559979 324.61,893.76 Z M368.62,951.63 C362.799971,951.63 358.450014,949.380022 355.57,944.88 C353.709991,941.999986 352.78,936.630039 352.78,928.77 L352.78,879 L362.05,879 L362.05,933.54 C362.05,939.420029 364.239978,942.39 368.62,942.45 C372.64002,942.45 374.65,939.48003 374.65,933.54 L374.65,879 L383.92,879 L383.92,928.5 C383.92,936.48004 382.96001,941.909986 381.04,944.79 C379.11999,947.430013 377.260009,949.229995 375.46,950.19 C373.659991,951.150005 371.380014,951.63 368.62,951.63 Z M400.39,908.34 L400.39,951 L391.12,951 L391.12,879.18 L400.39,879.18 L413.53,919.77 L413.53,879.18 L422.8,879.18 L422.8,951 L413.53,951 L400.39,908.34 Z M439.27,887.37 L439.27,942.63 L442.6,942.63 C444.64001,942.63 446.064996,942.480001 446.875,942.18 C447.685004,941.879999 448.509996,941.070007 449.35,939.75 C450.250004,937.70999 450.939998,935.010017 451.42,931.65 C451.48,931.349998 451.779997,927.990032 452.32,921.57 C452.500001,920.189993 452.59,917.910016 452.59,914.73 C452.59,912.149987 452.530001,910.110008 452.41,908.61 C451.929998,901.109962 451.000007,895.290021 449.62,891.15 C448.779996,888.629987 446.440019,887.37 442.6,887.37 L439.27,887.37 Z M430,951 L430,879 L443.95,879 C451.330037,879 456.189988,881.519975 458.53,886.56 C459.370004,888.780011 460.119997,891.989979 460.78,896.19 C461.440003,900.390021 461.8,904.229983 461.86,907.71 C461.980001,910.290013 462.04,912.53999 462.04,914.46 C462.04,915.960007 461.980001,918.419983 461.86,921.84 C461.319997,932.460053 460.150009,939.719981 458.35,943.62 C455.889988,948.540025 450.970037,951 443.59,951 L430,951 Z M481.93,904.74 L479.05,921.39 L485.08,921.39 L481.93,904.74 Z M485.89,879 L500.83,951 L491.38,951 L487.06,931.29 L476.8,931.29 L472.21,951 L462.67,951 L477.97,879 L485.89,879 Z M521.71,951 L512.17,951 L512.17,919.23 L497.5,879 L507.4,879 L516.85,906.09 L526.48,879 L536.47,879 L521.71,919.05 L521.71,951 Z M550.24,893.76 C550.24,896.760015 551.319989,899.819984 553.48,902.94 C554.620006,904.680009 556.599986,906.989986 559.42,909.87 C564.640026,915.270027 568.179991,920.039979 570.04,924.18 C571.420007,927.360016 572.11,931.139978 572.11,935.52 C572.11,939.840022 570.760014,943.499985 568.06,946.5 C564.999985,949.860017 560.740027,951.54 555.28,951.54 C550.779977,951.54 547.210013,949.860017 544.57,946.5 C541.989987,943.319984 540.640001,939.180026 540.52,934.08 L550.15,934.08 C550.15,936.480012 550.719994,938.459992 551.86,940.02 C553.000006,941.580008 554.439991,942.36 556.18,942.36 C560.26002,942.36 562.3,939.840025 562.3,934.8 C562.3,931.379983 561.520008,928.230014 559.96,925.35 C558.699994,923.129989 556.630014,920.520015 553.75,917.52 C545.289958,909.059958 541.06,901.080038 541.06,893.58 C541.06,889.199978 542.199989,885.690013 544.48,883.05 C547.180013,879.989985 551.259973,878.46 556.72,878.46 C561.580024,878.46 565.359986,880.139983 568.06,883.5 C570.340011,886.260014 571.629999,889.859978 571.93,894.3 L562.84,894.3 C562.419998,889.739977 560.290019,887.46 556.45,887.46 C552.309979,887.46 550.24,889.559979 550.24,893.76 Z" id="EXCEPT-SUNDAYS" fill="#B01C2E"></path>
        <rect id="Rectangle-Copy" stroke="#B01C2E" stroke-width="15" x="42" y="49" width="562" height="926" rx="16"></rect>
    </g>
</svg>